<svg id="图层_1" data-name="图层 1" xmlns="http://www.w3.org/2000/svg" viewBox="0 0 192.67 171.19"><defs><style>.cls-1{fill:none;stroke:gray;stroke-miterlimit:10;stroke-width:3px;}.cls-2{fill:#4d4d4d;}.cls-3{fill:gray;}.cls-4{fill:#666;}.cls-5{fill:#333;}.cls-6{fill:#1a1a1a;}.cls-7{fill:#ccc;}.cls-8{fill:#f2f2f2;}.cls-9{fill:#999;}.cls-10{fill:#b3b3b3;}.cls-11{fill:#e6e6e6;}.cls-12{fill:#fff;}.cls-13{fill:#99ccd4;}</style></defs><title>着陆器</title><g id="内部"><line class="cls-1" x1="175.9" y1="169.69" x2="163.54" y2="169.69"/><rect class="cls-2" x="7200.39" y="7247.36" width="20.35" height="18.83" transform="translate(7317.08 7382.34) rotate(-180)"/><rect class="cls-2" x="75.99" y="116.15" width="20.35" height="18.83"/><polygon class="cls-3" points="57.31 162.52 96.34 162.52 96.34 150.04 63.44 150.04 57.31 162.52"/><polygon class="cls-3" points="64.39 148.12 96.34 148.12 96.34 141.1 67.83 141.1 64.39 148.12"/><polygon class="cls-3" points="73.03 130.52 68.78 139.18 96.34 139.18 96.34 130.52 73.03 130.52"/><polygon class="cls-4" points="70.5 141.1 96.34 141.1 96.34 139.18 71.45 139.18 70.5 141.1"/><polygon class="cls-4" points="66.11 150.04 96.34 150.04 96.34 148.12 67.05 148.12 66.11 150.04"/><polygon class="cls-5" points="135.36 162.52 129.23 150.04 117.8 150.04 121.5 162.52 135.36 162.52"/><rect class="cls-3" x="96.34" y="150.04" width="5.53" height="12.48"/><rect class="cls-3" x="96.34" y="141.1" width="5.53" height="7.02"/><polygon class="cls-5" points="128.29 148.12 124.84 141.1 115.15 141.1 117.23 148.12 128.29 148.12"/><polygon class="cls-5" points="123.89 139.18 119.64 130.52 112.01 130.52 114.58 139.18 123.89 139.18"/><rect class="cls-3" x="96.34" y="130.52" width="5.53" height="8.65"/><rect class="cls-4" x="96.34" y="139.18" width="5.53" height="1.92"/><polygon class="cls-6" points="122.17 141.1 121.22 139.18 114.58 139.18 115.15 141.1 122.17 141.1"/><rect class="cls-4" x="96.34" y="148.12" width="5.53" height="1.92"/><polygon class="cls-6" points="125.62 148.12 117.23 148.12 117.8 150.04 126.56 150.04 125.62 148.12"/><polygon class="cls-5" points="115.15 141.1 114.58 139.18 101.86 139.18 101.86 141.1 115.15 141.1"/><polygon class="cls-5" points="101.86 148.12 101.86 150.04 117.8 150.04 117.23 148.12 101.86 148.12"/><polygon class="cls-2" points="117.8 150.04 101.86 150.04 101.86 162.52 121.5 162.52 117.8 150.04"/><polygon class="cls-2" points="115.15 141.1 101.86 141.1 101.86 148.12 117.23 148.12 115.15 141.1"/><polygon class="cls-2" points="112.01 130.52 101.86 130.52 101.86 139.18 114.58 139.18 112.01 130.52"/><polygon class="cls-2" points="17.72 127.81 18.61 127.81 18.61 122.81 8.78 122.81 8.78 127.81 14.14 127.81 17.72 127.81"/><polygon class="cls-3" points="14.33 131.56 6.05 131.56 5.38 131.56 3.62 135.58 4.44 135.58 14.53 135.58 14.33 131.56"/><polygon class="cls-2" points="19.55 135.58 22.94 135.58 23.76 135.58 22.01 131.56 21.33 131.56 18.6 131.56 19.55 135.58"/><polygon class="cls-2" points="21.5 143.89 27.38 143.89 24.11 136.38 23.26 136.38 19.73 136.38 21.5 143.89"/><polygon class="cls-3" points="4.12 136.38 3.27 136.38 0 143.89 14.95 143.89 14.57 136.38 4.12 136.38"/><polygon class="cls-3" points="14.24 129.77 8.78 129.77 8.78 127.81 7.01 127.81 5.69 130.85 6.34 130.85 14.29 130.85 14.24 129.77"/><polygon class="cls-2" points="18.18 129.77 18.43 130.85 21.05 130.85 21.7 130.85 20.37 127.81 18.61 127.81 18.61 129.77 18.18 129.77"/><polygon class="cls-2" points="18.18 129.77 18.61 129.77 18.61 127.81 17.72 127.81 18.18 129.77"/><polygon class="cls-3" points="14.24 129.77 14.14 127.81 8.78 127.81 8.78 129.77 14.24 129.77"/><polygon class="cls-5" points="18.6 131.56 21.33 131.56 21.05 130.85 18.43 130.85 18.6 131.56"/><polygon class="cls-4" points="14.29 130.85 6.34 130.85 6.05 131.56 14.33 131.56 14.29 130.85"/><polygon class="cls-5" points="19.73 136.38 23.26 136.38 22.94 135.58 19.55 135.58 19.73 136.38"/><polygon class="cls-4" points="14.53 135.58 4.44 135.58 4.12 136.38 14.57 136.38 14.53 135.58"/><polygon class="cls-4" points="18.6 131.56 14.33 131.56 14.53 135.58 19.55 135.58 18.6 131.56"/><polygon class="cls-4" points="19.73 136.38 14.57 136.38 14.95 143.89 21.5 143.89 19.73 136.38"/><polygon class="cls-4" points="18.18 129.77 14.24 129.77 14.29 130.85 18.43 130.85 18.18 129.77"/><polygon class="cls-4" points="17.72 127.81 14.14 127.81 14.24 129.77 18.18 129.77 17.72 127.81"/><polygon class="cls-2" points="18.43 130.85 14.29 130.85 14.33 131.56 18.6 131.56 18.43 130.85"/><polygon class="cls-2" points="14.53 135.58 14.57 136.38 19.73 136.38 19.55 135.58 14.53 135.58"/><polygon class="cls-2" points="183.01 128.39 183.89 128.39 183.89 123.39 174.07 123.39 174.07 128.39 179.43 128.39 183.01 128.39"/><polygon class="cls-3" points="179.62 132.14 171.34 132.14 170.66 132.14 168.91 136.16 169.73 136.16 179.82 136.16 179.62 132.14"/><polygon class="cls-2" points="184.84 136.16 188.23 136.16 189.05 136.16 187.3 132.14 186.62 132.14 183.89 132.14 184.84 136.16"/><polygon class="cls-2" points="186.79 144.47 192.67 144.47 189.4 136.97 188.55 136.97 185.02 136.97 186.79 144.47"/><polygon class="cls-3" points="169.41 136.97 168.56 136.97 165.29 144.47 180.24 144.47 179.86 136.97 169.41 136.97"/><polygon class="cls-3" points="179.53 130.35 174.07 130.35 174.07 128.39 172.3 128.39 170.98 131.43 171.63 131.43 179.58 131.43 179.53 130.35"/><polygon class="cls-2" points="183.47 130.35 183.72 131.43 186.33 131.43 186.98 131.43 185.66 128.39 183.89 128.39 183.89 130.35 183.47 130.35"/><polygon class="cls-2" points="183.47 130.35 183.89 130.35 183.89 128.39 183.01 128.39 183.47 130.35"/><polygon class="cls-3" points="179.53 130.35 179.43 128.39 174.07 128.39 174.07 130.35 179.53 130.35"/><polygon class="cls-5" points="183.89 132.14 186.62 132.14 186.33 131.43 183.72 131.43 183.89 132.14"/><polygon class="cls-4" points="179.58 131.43 171.63 131.43 171.34 132.14 179.62 132.14 179.58 131.43"/><polygon class="cls-5" points="185.02 136.97 188.55 136.97 188.23 136.16 184.84 136.16 185.02 136.97"/><polygon class="cls-4" points="179.82 136.16 169.73 136.16 169.41 136.97 179.86 136.97 179.82 136.16"/><polygon class="cls-4" points="183.89 132.14 179.62 132.14 179.82 136.16 184.84 136.16 183.89 132.14"/><polygon class="cls-4" points="185.02 136.97 179.86 136.97 180.24 144.47 186.79 144.47 185.02 136.97"/><polygon class="cls-4" points="183.47 130.35 179.53 130.35 179.58 131.43 183.72 131.43 183.47 130.35"/><polygon class="cls-4" points="183.01 128.39 179.43 128.39 179.53 130.35 183.47 130.35 183.01 128.39"/><polygon class="cls-2" points="183.72 131.43 179.58 131.43 179.62 132.14 183.89 132.14 183.72 131.43"/><polygon class="cls-2" points="179.82 136.16 179.86 136.97 185.02 136.97 184.84 136.16 179.82 136.16"/><line class="cls-3" x1="96.34" y1="123.39" x2="96.34" y2="115.35"/><line class="cls-3" x1="96.34" y1="163.68" x2="96.34" y2="128.93"/><path class="cls-3" d="M7109.59,7254.6h90.8v-8h-89.12a2.67,2.67,0,0,0-2.67,2.67Z" transform="translate(-7104.06 -7131.21)"/><line class="cls-1" x1="35.14" y1="121.18" x2="23.11" y2="169.51"/><line class="cls-1" x1="55.27" y1="121.18" x2="23.11" y2="169.51"/><line class="cls-1" x1="16.77" y1="169.69" x2="29.13" y2="169.69"/><line class="cls-3" x1="96.11" y1="123.39" x2="96.11" y2="115.35"/><line class="cls-3" x1="96.11" y1="163.68" x2="96.11" y2="128.93"/><path class="cls-3" d="M7291.2,7254.6h-90.81v-8h89.13a2.67,2.67,0,0,1,2.67,2.67Z" transform="translate(-7104.06 -7131.21)"/><line class="cls-1" x1="157.53" y1="121.18" x2="169.56" y2="169.51"/><line class="cls-1" x1="137.4" y1="121.18" x2="169.56" y2="169.51"/><polygon class="cls-7" points="44.19 40.75 35.67 63.3 18.28 115.34 45.03 115.34 61.44 40.75 44.19 40.75"/><rect class="cls-7" x="96.11" y="40.75" width="0.22" height="74.6"/><polygon class="cls-7" points="80.59 40.75 70.33 115.34 96.11 115.34 96.11 40.75 80.59 40.75"/><polygon class="cls-4" points="147.72 115.34 174.39 115.34 157 63.3 148.49 40.75 131.31 40.75 147.72 115.34"/><polygon class="cls-7" points="96.34 40.75 96.34 115.34 122.42 115.34 112.17 40.75 96.34 40.75"/><polygon class="cls-3" points="112.17 40.75 122.42 115.34 147.72 115.34 131.31 40.75 112.17 40.75"/><polygon class="cls-8" points="61.44 40.75 45.03 115.34 70.33 115.34 80.59 40.75 61.44 40.75"/><path class="cls-9" d="M7225.76,7138.59l-11.59-3.37a88,88,0,0,1,20.15,32l1.05,4.75h17.17l-7.23-19.17c-2-1.74-4.19-3.51-6.49-5.27A146.91,146.91,0,0,0,7225.76,7138.59Z" transform="translate(-7104.06 -7131.21)"/><path class="cls-10" d="M7234.32,7167.21a87.91,87.91,0,0,0-20.15-32l-11.38-3.31,13,37.09.4,3h19.15Z" transform="translate(-7104.06 -7131.21)"/><path class="cls-11" d="M7186.71,7135.19l-11.68,3.4c-3.63,2.21-7.47,4.77-11.42,7.7-2.93,2.19-5.64,4.37-8.13,6.5q-3.61,9.59-7.24,19.17h17.26l1.05-4.75Z" transform="translate(-7104.06 -7131.21)"/><path class="cls-12" d="M7198.08,7131.91l-11.38,3.31a68.54,68.54,0,0,0-20.15,32l-1.05,4.75h19.14l.41-3Z" transform="translate(-7104.06 -7131.21)"/><path class="cls-11" d="M7198.09,7131.88a105,105,0,0,0-13,37.12l-.41,3h15.53v0h.22v-40.75Z" transform="translate(-7104.06 -7131.21)"/><polygon class="cls-12" points="82.64 4.01 94.02 0.7 80.99 37.79 94.03 0.67 82.65 3.98 62.49 36 82.64 4.01"/><path class="cls-11" d="M7200.39,7172h15.83l-.4-3a102,102,0,0,0-3.21-14.5,103,103,0,0,0-9.82-22.59l-2.4-.7V7172Z" transform="translate(-7104.06 -7131.21)"/><rect class="cls-2" x="79.7" y="38.88" width="33.05" height="72.04" rx="12" ry="12"/><rect class="cls-4" x="80.58" y="40.93" width="31.87" height="70.39" rx="12" ry="12"/><path class="cls-10" d="M7203.86,7172.86h-6.57a12,12,0,0,0-12,12v45.08a11.86,11.86,0,0,0,.72,4.05l25.93-58A11.93,11.93,0,0,0,7203.86,7172.86Z" transform="translate(-7104.06 -7131.21)"/><path class="cls-7" d="M7211.94,7176,7186,7234a12,12,0,0,0,11.28,7.95h6.57a12,12,0,0,0,12-12v-45.08A12,12,0,0,0,7211.94,7176Z" transform="translate(-7104.06 -7131.21)"/><path class="cls-4" d="M7204.32,7205.23l-5.44-.06c-4-.91-8.32-3.19-8.32-8.23v-4.32c0-5.05,3.78-9.17,8.4-9.17H7204c4.62,0,8.4,4.12,8.4,9.17v4.32C7211.43,7202.39,7209,7204.4,7204.32,7205.23Z" transform="translate(-7104.06 -7131.21)"/><rect class="cls-9" x="85.76" y="51.32" width="21.21" height="21.24" rx="9.71" ry="9.71"/><rect class="cls-2" x="86.19" y="51.76" width="20.35" height="20.38" rx="9.31" ry="9.31"/><path class="cls-13" d="M7190.43,7193.16a10.75,10.75,0,0,0,2.65,7.19l2.4-16.06A9.8,9.8,0,0,0,7190.43,7193.16Z" transform="translate(-7104.06 -7131.21)"/><path class="cls-13" d="M7201.46,7183.29l-3,20a8,8,0,0,0,1.1.08h.7l3-19.84A9.42,9.42,0,0,0,7201.46,7183.29Z" transform="translate(-7104.06 -7131.21)"/><path class="cls-13" d="M7210.6,7193.16a9.79,9.79,0,0,0-6.11-9.26l-2.9,19.43C7206.57,7203.14,7210.6,7198.64,7210.6,7193.16Z" transform="translate(-7104.06 -7131.21)"/><path class="cls-8" d="M7201.2,7183.28h-1.63a8.66,8.66,0,0,0-4.09,1l-2.4,16.06a8.76,8.76,0,0,0,5.4,2.92l3-20Z" transform="translate(-7104.06 -7131.21)"/><line class="cls-13" x1="101.54" y1="45.3" x2="100.26" y2="45.07"/><path class="cls-13" d="M7203.24,7183.51a8.64,8.64,0,0,1,1.25.39" transform="translate(-7104.06 -7131.21)"/><path class="cls-8" d="M7203.24,7183.51l-3,19.84h1l.32,0,2.9-19.43A8.64,8.64,0,0,0,7203.24,7183.51Z" transform="translate(-7104.06 -7131.21)"/></g></svg>