<svg xmlns="http://www.w3.org/2000/svg" xmlns:xlink="http://www.w3.org/1999/xlink" viewBox="0 0 906.61 536.32"><defs><style>.cls-1{fill:none;}.cls-2{clip-path:url(#clip-path);}.cls-3{clip-path:url(#clip-path-2);}</style><clipPath id="clip-path"><rect class="cls-1" x="303.86" y="148.39" width="266.64" height="111.48" transform="translate(195.76 -213.62) rotate(34.95)"/></clipPath><clipPath id="clip-path-2"><rect class="cls-1" x="544.38" y="283.39" width="266.64" height="111.48" transform="translate(316.46 -327.05) rotate(34.95)"/></clipPath></defs><g id="图层_2" data-name="图层 2"><g id="图层_3" data-name="图层 3"><circle cx="651.78" cy="124.95" r="124.52"/><circle cx="451.47" cy="411.8" r="124.52"/><rect x="424.04" y="92.5" width="249.04" height="360.76" transform="translate(255.23 -265.02) rotate(34.95)"/><circle cx="782.09" cy="410.1" r="124.52" transform="translate(-60.92 673.14) rotate(-45)"/><path d="M398,21.32c-61-42.67-139.88-15.49-173.42,30.6C203,81.62,195,128.2,207.06,165.48c8.45,26.11,21.52,34.76,19.5,58.43-2.1,24.7-19.57,48.74-41.77,59-21.15,9.83-33.71,1.24-60.48,2.36C86.37,286.92,43,307.13,20.9,338.46.58,367.31-6.61,412.18,6.91,452.18a7.55,7.55,0,0,0,13.42,1.69l.78-1.17a8.57,8.57,0,0,0,.45-.77l.26-.48-.09-.05,33.16-49.78a20.6,20.6,0,0,1,17.55-9.69c12-.08,22.14,9.35,22.77,21.07a20.07,20.07,0,0,1-3.34,12.3l0,0-31.34,47a7.24,7.24,0,0,0-.41.71A20.27,20.27,0,0,1,59,475l0,0L44.1,497.44a7.57,7.57,0,0,0,1.59,10.12q2.81,2.22,5.81,4.32a118.93,118.93,0,0,0,16.62,9.76A7.57,7.57,0,0,0,77.71,519l14-20.95a8.19,8.19,0,0,0,.45-.77l.25-.47-.08-.06L125.45,447A20.54,20.54,0,0,1,143,437.32c11.94-.09,22.13,9.35,22.76,21.07a20,20,0,0,1-3.34,12.3l0,0-31.34,47a6.94,6.94,0,0,0-.41.71,21.46,21.46,0,0,1-1.16,2l0,0h0a7.55,7.55,0,0,0,7.24,11.69c37.25-5,70.75-25.78,88.11-50.84,21.71-31.34,25-79.24,14.66-115-7.18-24.89-18.26-34.55-15.86-57.42,2.42-23.1,17.37-48,39.85-59.11,25.4-12.55,40.06,2,74.63-1.21,36.18-3.39,71.69-26.1,90.43-53.83C460,148.32,459.44,64.3,398,21.32Z"/><g class="cls-2"><path d="M462.78,182c-3.53,1.7-11.08,4.29-16.54.87-6.8-4.25-6.18-15.55-5.94-20,.71-12.89,6.39-18.16,10-29.13,5.08-15.51,4.68-38-4.34-43.51-14.17-8.64-52.67,11.25-86,59.27-33.13,47.68-38.38,90.26-24.84,100.32,9,6.72,28.67.57,47.93-15.53,8.88-7.43,11.3-11.64,18.33-15.85,16.91-10.1,28.52-1.07,25,18.54-1.31,7.4-3.78,10.73-7.16,20.71-7.61,22.5-8.46,45.17,1.12,51.7,13.53,9.23,52.3-10.72,86-59.26,34.22-49.26,38.27-92,24.84-100.32-9.61-6-31.2,3.83-49.22,17.65C472.78,174.49,469.6,178.7,462.78,182Z"/></g><g class="cls-3"><path d="M703.3,317c-3.52,1.7-11.08,4.29-16.54.87-6.79-4.25-6.18-15.54-5.93-20,.7-12.88,6.38-18.16,10-29.13,5.08-15.5,4.68-38-4.34-43.5-14.17-8.65-52.66,11.24-86,59.27-33.13,47.68-38.38,90.25-24.84,100.31,9,6.72,28.67.58,47.93-15.53,8.88-7.43,11.3-11.64,18.33-15.84,16.91-10.11,28.52-1.08,25,18.54-1.31,7.39-3.78,10.72-7.16,20.71-7.61,22.49-8.46,45.17,1.12,51.7,13.54,9.23,52.31-10.72,86-59.27,34.21-49.25,38.26-92,24.83-100.31-9.61-6-31.2,3.82-49.21,17.64C713.3,309.49,710.12,313.69,703.3,317Z"/></g></g></g></svg>