<svg id="图层_1" data-name="图层 1" xmlns="http://www.w3.org/2000/svg" viewBox="0 0 212 193.44"><defs><style>.cls-1{fill:#ccc;}.cls-2{fill:#999;}.cls-3{fill:#f2f2f2;}.cls-4{fill:gray;}.cls-5{fill:#b3b3b3;}.cls-6{fill:#fff;}.cls-7{fill:#666;}</style></defs><title>外壳</title><g id="外壳"><polyline class="cls-1" points="211.46 148.26 182.92 148.26 183 148.57 134 148.57 133.97 148.26 106 148.26 65.03 148.26 65 148.57 16 148.57 16.08 148.26 0.54 148.26"/><path class="cls-2" d="M7276.74,7147.65l-12.72-37a13.16,13.16,0,0,0-4.26-6.13,10.61,10.61,0,0,0-6.53-2.31l-10.17-1.79,12.58,47.27Z" transform="translate(-7098.88 -7097.63)"/><path class="cls-3" d="M7204.87,7147.65h18.47l-4.84-50h-35.22a10.81,10.81,0,0,0-2,.17l-3.14.55-4.77,49.3Z" transform="translate(-7098.88 -7097.63)"/><path class="cls-3" d="M7154.06,7102.48a11,11,0,0,0-4.07,2,13.16,13.16,0,0,0-4.26,6.13l-12.72,37h8.73Z" transform="translate(-7098.88 -7097.63)"/><polygon class="cls-3" points="129.66 103.69 124.73 52.76 106 52.76 74.27 52.76 69.34 103.69 106 103.69 129.66 103.69"/><polygon class="cls-3" points="42.13 52.76 33.19 52.76 24 79.52 15.7 103.69 28.24 103.69 42.13 52.76"/><polygon class="cls-2" points="171.05 103.69 196.3 103.69 188 79.52 178.81 52.76 157.5 52.76 171.05 103.69"/><polygon class="cls-3" points="106 106.42 69.08 106.42 65.03 148.26 106 148.26 133.97 148.26 129.92 106.42 106 106.42"/><path class="cls-2" d="M7281.79,7245.89h28.55a21.86,21.86,0,0,0-.62-2.2l-13.61-39.64h-25.46Z" transform="translate(-7098.88 -7097.63)"/><path class="cls-3" d="M7126.37,7204.05h-12.73L7100,7243.69a21.8,21.8,0,0,0-.61,2.2H7115Z" transform="translate(-7098.88 -7097.63)"/><polygon class="cls-4" points="157.5 52.76 178.81 52.76 177.87 50.03 156.77 50.03 157.5 52.76"/><polygon class="cls-2" points="106 52.76 124.73 52.76 124.47 50.03 106 50.03 74.53 50.03 74.27 52.76 106 52.76"/><polygon class="cls-2" points="42.87 50.03 34.13 50.03 33.19 52.76 42.13 52.76 42.87 50.03"/><polygon class="cls-4" points="171.78 106.42 197.24 106.42 196.3 103.69 171.05 103.69 171.78 106.42"/><polygon class="cls-2" points="106 103.69 69.34 103.69 69.08 106.42 106 106.42 129.92 106.42 129.66 103.69 106 103.69"/><polygon class="cls-2" points="28.24 103.69 15.7 103.69 14.76 106.42 27.49 106.42 28.24 103.69"/><polygon class="cls-5" points="134 148.57 183 148.57 182.92 148.26 133.97 148.26 134 148.57"/><path class="cls-5" d="M7255.64,7147.65l-12.58-47.27-14.63-2.58a10.81,10.81,0,0,0-2-.17h-8l4.84,50Z" transform="translate(-7098.88 -7097.63)"/><polygon class="cls-5" points="129.66 103.69 171.05 103.69 157.5 52.76 124.73 52.76 129.66 103.69"/><polygon class="cls-5" points="129.92 106.42 133.97 148.26 182.92 148.26 171.78 106.42 129.92 106.42"/><polygon class="cls-4" points="157.5 52.76 156.77 50.03 124.47 50.03 124.73 52.76 157.5 52.76"/><polygon class="cls-4" points="129.92 106.42 171.78 106.42 171.05 103.69 129.66 103.69 129.92 106.42"/><polygon class="cls-6" points="16 148.57 65 148.57 65.03 148.26 16.08 148.26 16 148.57"/><path class="cls-6" d="M7173.41,7147.65l4.77-49.3-21.66,3.82a10.11,10.11,0,0,0-2.46.31l-12.32,45.17Z" transform="translate(-7098.88 -7097.63)"/><polygon class="cls-6" points="74.27 52.76 42.13 52.76 28.24 103.69 69.34 103.69 74.27 52.76"/><polygon class="cls-6" points="27.49 106.42 16.08 148.26 65.03 148.26 69.08 106.42 27.49 106.42"/><polygon class="cls-5" points="74.53 50.03 42.87 50.03 42.13 52.76 74.27 52.76 74.53 50.03"/><polygon class="cls-5" points="69.34 103.69 28.24 103.69 27.49 106.42 69.08 106.42 69.34 103.69"/><path class="cls-1" d="M7099.41,7245.46a21.4,21.4,0,0,0,.64,11.74H7235c1.25-1.52,1.91-2.43,1.91-2.43s56-14,47,1a14.08,14.08,0,0,1-1,1.43h26.84a21.4,21.4,0,0,0,.64-11.74" transform="translate(-7098.88 -7097.63)"/><path class="cls-2" d="M7235,7257.2H7100.05v0a17.91,17.91,0,0,0,9.27,10.6l46.56,14.54c.81.25,1.64.47,2.48.66l28.7,6.38c.83.16,1.66.28,2.5.41C7213.17,7281.76,7229.59,7263.74,7235,7257.2Z" transform="translate(-7098.88 -7097.63)"/><path class="cls-7" d="M7282.86,7257.2c-7,8.66-31.6,21.12-51.7,30.32l20.24-4.5c.84-.19,1.66-.41,2.48-.66l46.56-14.54a17.94,17.94,0,0,0,9.27-10.6v0Z" transform="translate(-7098.88 -7097.63)"/><path class="cls-1" d="M7236.87,7254.77s-.66.91-1.91,2.43h47.9a14.08,14.08,0,0,0,1-1.43C7292.87,7240.77,7236.87,7254.77,7236.87,7254.77Z" transform="translate(-7098.88 -7097.63)"/><path class="cls-4" d="M7282.86,7257.2H7235c-5.37,6.54-21.79,24.56-45.41,32.61a96.05,96.05,0,0,0,15.32,1.26c2.82,0,5.14-.14,6-.19a96.62,96.62,0,0,0,11.79-1.48l8.46-1.88C7251.26,7278.32,7275.86,7265.86,7282.86,7257.2Z" transform="translate(-7098.88 -7097.63)"/></g></svg>