<svg id="图层_1" data-name="图层 1" xmlns="http://www.w3.org/2000/svg" viewBox="0 0 212 46.87"><defs><style>.cls-1{fill:#ccc;}.cls-2{fill:#999;}.cls-3{fill:#666;}.cls-4{fill:gray;}.cls-5{fill:none;stroke:gray;stroke-miterlimit:10;stroke-width:3px;}</style></defs><title>外壳分离2</title><g id="外壳_下半_" data-name="外壳（下半）"><path class="cls-1" d="M7094.12,7179.44a21.43,21.43,0,0,0,.64,11.75h134.91c1.25-1.53,1.91-2.44,1.91-2.44s56-14,47,1a10.86,10.86,0,0,1-1,1.44h26.84a21.43,21.43,0,0,0,.64-11.75" transform="translate(-7093.59 -7178.19)"/><path class="cls-2" d="M7229.67,7191.19H7094.76v0a18,18,0,0,0,9.27,10.6l46.56,14.54c.81.25,1.64.47,2.48.66l28.7,6.38c.83.15,1.66.27,2.5.41C7207.88,7215.75,7224.3,7197.72,7229.67,7191.19Z" transform="translate(-7093.59 -7178.19)"/><path class="cls-3" d="M7277.57,7191.19c-7,8.66-31.6,21.11-51.69,30.31l20.23-4.49c.84-.19,1.67-.41,2.48-.66l46.56-14.54a18,18,0,0,0,9.27-10.6v0Z" transform="translate(-7093.59 -7178.19)"/><path class="cls-1" d="M7231.58,7188.75s-.66.91-1.91,2.44h47.9a10.86,10.86,0,0,0,1-1.44C7287.58,7174.75,7231.58,7188.75,7231.58,7188.75Z" transform="translate(-7093.59 -7178.19)"/><path class="cls-4" d="M7277.57,7191.19h-47.9c-5.37,6.53-21.79,24.56-45.41,32.61a96,96,0,0,0,15.32,1.25c2.83,0,5.15-.13,6-.19a94.93,94.93,0,0,0,11.79-1.47l8.47-1.89C7246,7212.3,7270.57,7199.85,7277.57,7191.19Z" transform="translate(-7093.59 -7178.19)"/><line class="cls-5" x1="0.5" y1="1.5" x2="211.5" y2="1.5"/></g></svg>