<svg id="图层_1" data-name="图层 1" xmlns="http://www.w3.org/2000/svg" viewBox="0 0 210.96 150.57"><defs><style>.cls-1{fill:#ccc;}.cls-2,.cls-7{fill:#999;}.cls-3{fill:#f2f2f2;}.cls-4{fill:gray;}.cls-5{fill:#b3b3b3;}.cls-6{fill:#fff;}.cls-7{stroke:gray;stroke-miterlimit:10;stroke-width:3px;}</style></defs><title>外壳分离1</title><g id="外壳_上半_" data-name="外壳（上半）"><polyline class="cls-1" points="210.92 148.26 182.38 148.26 182.46 148.57 133.46 148.57 133.43 148.26 105.46 148.26 64.49 148.26 64.46 148.57 15.46 148.57 15.55 148.26 0 148.26"/><path class="cls-2" d="M7271.45,7174.64l-12.72-37a13.11,13.11,0,0,0-4.26-6.13,10.61,10.61,0,0,0-6.53-2.31l-10.17-1.79,12.58,47.27Z" transform="translate(-7094.12 -7124.61)"/><path class="cls-3" d="M7199.58,7174.64h18.47l-4.84-50H7178a10.83,10.83,0,0,0-2,.18l-3.14.55-4.77,49.3Z" transform="translate(-7094.12 -7124.61)"/><path class="cls-3" d="M7148.77,7129.47a11,11,0,0,0-4.07,2,13.11,13.11,0,0,0-4.26,6.13l-12.72,37h8.74Z" transform="translate(-7094.12 -7124.61)"/><polygon class="cls-3" points="129.12 103.69 124.19 52.76 105.46 52.76 73.73 52.76 68.8 103.69 105.46 103.69 129.12 103.69"/><polygon class="cls-3" points="41.59 52.76 32.66 52.76 23.46 79.52 15.16 103.69 27.7 103.69 41.59 52.76"/><polygon class="cls-2" points="170.52 103.69 195.76 103.69 187.46 79.52 178.27 52.76 156.96 52.76 170.52 103.69"/><polygon class="cls-3" points="105.46 106.42 68.54 106.42 64.49 148.26 105.46 148.26 133.43 148.26 129.38 106.42 105.46 106.42"/><path class="cls-2" d="M7276.5,7272.88h28.55c-.17-.74-.37-1.47-.61-2.2L7290.82,7231h-25.45Z" transform="translate(-7094.12 -7124.61)"/><path class="cls-3" d="M7121.08,7231h-12.73l-13.62,39.64c-.24.73-.44,1.46-.61,2.2h15.55Z" transform="translate(-7094.12 -7124.61)"/><polygon class="cls-4" points="156.96 52.76 178.27 52.76 177.33 50.03 156.23 50.03 156.96 52.76"/><polygon class="cls-2" points="105.46 52.76 124.19 52.76 123.93 50.03 105.46 50.03 74 50.03 73.73 52.76 105.46 52.76"/><polygon class="cls-2" points="42.33 50.03 33.59 50.03 32.66 52.76 41.59 52.76 42.33 50.03"/><polygon class="cls-4" points="171.24 106.42 196.7 106.42 195.76 103.69 170.52 103.69 171.24 106.42"/><polygon class="cls-2" points="105.46 103.69 68.8 103.69 68.54 106.42 105.46 106.42 129.38 106.42 129.12 103.69 105.46 103.69"/><polygon class="cls-2" points="27.7 103.69 15.16 103.69 14.23 106.42 26.96 106.42 27.7 103.69"/><polygon class="cls-5" points="133.46 148.57 182.46 148.57 182.38 148.26 133.43 148.26 133.46 148.57"/><path class="cls-5" d="M7250.35,7174.64l-12.58-47.27-14.63-2.58a10.83,10.83,0,0,0-2-.18h-8l4.84,50Z" transform="translate(-7094.12 -7124.61)"/><polygon class="cls-5" points="129.12 103.69 170.52 103.69 156.96 52.76 124.19 52.76 129.12 103.69"/><polygon class="cls-5" points="129.38 106.42 133.43 148.26 182.38 148.26 171.24 106.42 129.38 106.42"/><polygon class="cls-4" points="156.96 52.76 156.23 50.03 123.93 50.03 124.19 52.76 156.96 52.76"/><polygon class="cls-4" points="129.38 106.42 171.24 106.42 170.52 103.69 129.12 103.69 129.38 106.42"/><polygon class="cls-6" points="15.46 148.57 64.46 148.57 64.49 148.26 15.55 148.26 15.46 148.57"/><path class="cls-6" d="M7168.12,7174.64l4.77-49.3-21.66,3.82a10.11,10.11,0,0,0-2.46.31l-12.31,45.17Z" transform="translate(-7094.12 -7124.61)"/><polygon class="cls-6" points="73.73 52.76 41.59 52.76 27.7 103.69 68.8 103.69 73.73 52.76"/><polygon class="cls-6" points="26.96 106.42 15.55 148.26 64.49 148.26 68.54 106.42 26.96 106.42"/><polygon class="cls-5" points="74 50.03 42.33 50.03 41.59 52.76 73.73 52.76 74 50.03"/><polygon class="cls-5" points="68.8 103.69 27.7 103.69 26.96 106.42 68.54 106.42 68.8 103.69"/><path class="cls-7" d="M7094.39,7273.69h0Z" transform="translate(-7094.12 -7124.61)"/></g></svg>